<svg xmlns="http://www.w3.org/2000/svg" width="14.06" height="14.06" viewBox="0 0 14.06 14.06">
  <path id="删除" d="M14.153,3.169h-2.2V1.412a.881.881,0,0,0-.879-.879H4.121a.881.881,0,0,0-.879.879V3.169H.972a.439.439,0,0,0,0,.879H14.153a.439.439,0,0,0,0-.879Zm-10.031,0h0V1.413h6.957V3.168H4.122ZM12.4,4.927a.439.439,0,0,0-.439.439v7.909a.441.441,0,0,1-.439.439H3.608a.441.441,0,0,1-.439-.439V5.366a.439.439,0,1,0-.879,0v7.909a1.32,1.32,0,0,0,1.318,1.318h7.909a1.32,1.32,0,0,0,1.318-1.318V5.366A.439.439,0,0,0,12.4,4.927ZM6.245,11.517V5.366a.439.439,0,1,0-.879,0v6.151a.439.439,0,1,0,.879,0Zm3.515,0V5.366a.439.439,0,1,0-.879,0v6.151a.439.439,0,1,0,.879,0Z" transform="translate(-0.533 -0.533)" fill="#fff" opacity="0.902"/>
</svg>
