<svg xmlns="http://www.w3.org/2000/svg" width="26.985" height="26.982" viewBox="0 0 26.985 26.982">
  <g id="编辑" opacity="0.899">
    <path id="路径_6" data-name="路径 6" d="M108.529,96h-10.6A1.927,1.927,0,0,0,96,97.927v23.129a1.927,1.927,0,0,0,1.927,1.927h23.129a1.927,1.927,0,0,0,1.927-1.927v-10.6a.963.963,0,0,0-1.927,0v10.6H97.927V97.927h10.6a.963.963,0,0,0,0-1.927Z" transform="translate(-96 -96)" fill="#fff"/>
    <path id="路径_7" data-name="路径 7" d="M407.648,97.927a.963.963,0,0,1,.681,1.644l-11.186,11.187-1.732.376.373-1.742,11.183-11.183a.965.965,0,0,1,.681-.282m0-1.927a2.881,2.881,0,0,0-2.043.847L394.421,108.03a1.932,1.932,0,0,0-.522.96l-.7,3.269a.962.962,0,0,0,.95,1.1,1.045,1.045,0,0,0,.139-.01l3.263-.707a1.9,1.9,0,0,0,.954-.522l11.183-11.183A2.892,2.892,0,0,0,407.648,96Z" transform="translate(-383.553 -96)" fill="#fff"/>
  </g>
</svg>
