<svg xmlns="http://www.w3.org/2000/svg" width="16.812" height="16.812" viewBox="0 0 16.812 16.812">
  <g id="设置" transform="translate(-128 -128)" opacity="0.901">
    <path id="路径_8" data-name="路径 8" d="M138.551,129.525a7.121,7.121,0,0,1,1.2.5l.247,1.614.156,1.017,1.017.156,1.614.247a7.111,7.111,0,0,1,.5,1.2l-.967,1.317-.609.829.609.829.967,1.317a7.124,7.124,0,0,1-.5,1.2l-1.614.247-1.017.156L140,141.175l-.247,1.614a7.108,7.108,0,0,1-1.2.5l-1.317-.967-.829-.61-.829.609-1.317.967a7.124,7.124,0,0,1-1.2-.5l-.247-1.614-.156-1.017L131.637,140l-1.614-.247a7.108,7.108,0,0,1-.5-1.2l.967-1.317.61-.829-.609-.829-.967-1.317a7.122,7.122,0,0,1,.5-1.2l1.614-.247,1.017-.156.156-1.017.247-1.614a7.108,7.108,0,0,1,1.2-.5l1.317.967.829.61.829-.609,1.316-.967m-.29-1.525-1.855,1.362L134.551,128a8.557,8.557,0,0,0-2.777,1.152l-.348,2.274-2.274.348A8.566,8.566,0,0,0,128,134.551l1.362,1.855L128,138.261a8.557,8.557,0,0,0,1.152,2.777l2.274.348.348,2.274a8.553,8.553,0,0,0,2.777,1.152l1.855-1.362,1.855,1.362a8.557,8.557,0,0,0,2.777-1.152l.348-2.274,2.274-.348a8.557,8.557,0,0,0,1.152-2.777l-1.362-1.855,1.362-1.855a8.553,8.553,0,0,0-1.152-2.777l-2.274-.348-.348-2.274A8.566,8.566,0,0,0,138.261,128Z" fill="#fff"/>
    <path id="路径_9" data-name="路径 9" d="M355.5,361a3.5,3.5,0,1,1,3.5-3.5A3.506,3.506,0,0,1,355.5,361Zm0-5.6a2.1,2.1,0,1,0,2.1,2.1A2.1,2.1,0,0,0,355.5,355.4Z" transform="translate(-219.097 -221.053)" fill="#fff"/>
  </g>
</svg>
