<?xml version="1.0" standalone="no"?><!DOCTYPE svg PUBLIC "-//W3C//DTD SVG 1.1//EN" "http://www.w3.org/Graphics/SVG/1.1/DTD/svg11.dtd"><svg class="icon" width="280px" height="279.73px" viewBox="0 0 1025 1024" version="1.1" xmlns="http://www.w3.org/2000/svg"><path d="M832.004212 960.514108l-640.000256 0c-105.878385 0-192.003966-86.157305-192.003966-192.074577L-1.0e-05 384.281167c0-35.390696 28.623247-64.026223 63.993476-64.026223 35.380462 0 64.00678 28.635528 64.00678 64.026223l0 384.158364c0 35.264823 28.688742 64.02213 64.00371 64.02213l640.000256 0c35.314968 0 64.001663-28.757307 64.001663-64.02213L896.005875 384.281167c0-35.390696 28.622224-64.026223 64.00371-64.026223 35.370229 0 63.990406 28.635528 63.990406 64.026223l0 384.158364C1023.99999 874.356803 937.878503 960.514108 832.004212 960.514108z" fill="#ffffff" /><path d="M489.376675 617.750465c12.438884 12.442977 32.812864 12.442977 45.251747 0l210.750811-210.833703c12.436837-12.446047 8.246197-22.634572-9.374958-22.634572l-64.005756 0c-17.618085 0-31.998273-14.382235-31.998273-32.016693L640.000246 224.215096c0-17.629342-14.367908-32.00953-31.999296-32.00953l-192.001919 0c-17.620131 0-31.999296 14.381212-31.999296 32.00953l0 128.049377c0 17.634458-14.377118 32.016693-32.00032 32.016693l-64.00371 0c-17.619108 0-21.810771 10.188525-9.368818 22.634572L489.376675 617.750465z" fill="#ffffff" /><path d="M384.000758 96.161626c0-17.626271 14.314694-32.00953 31.999296-32.00953 17.69279 0 32.002367 14.384282 32.002367 32.00953 0 17.760331-14.309577 32.017717-32.002367 32.017717C398.316475 128.180366 384.000758 113.922981 384.000758 96.161626z" fill="#ffffff" /><path d="M576.004723 96.161626c0-17.626271 14.315717-32.00953 31.99725-32.00953 17.690743 0 31.999296 14.384282 31.999296 32.00953 0 17.760331-14.30753 32.017717-31.999296 32.017717C590.321464 128.180366 576.004723 113.922981 576.004723 96.161626z" fill="#ffffff" /><path d="M416.000054 64.152096l192.001919 0 0 64.027247-192.001919 0 0-64.027247Z" fill="#ffffff" /></svg>