<?xml version="1.0" standalone="no"?><!DOCTYPE svg PUBLIC "-//W3C//DTD SVG 1.1//EN" "http://www.w3.org/Graphics/SVG/1.1/DTD/svg11.dtd"><svg t="1559129097768" class="icon" style="" viewBox="0 0 1024 1024" version="1.1" xmlns="http://www.w3.org/2000/svg" p-id="1387" xmlns:xlink="http://www.w3.org/1999/xlink" width="16" height="16"><defs><style type="text/css"></style></defs><path d="M719.686005 947.954971l-46.010438-17.892949 171.261074-437.09916a37.702998 37.702998 0 0 0-23.644252-49.844641L522.224542 345.34604a37.702998 37.702998 0 0 0-47.288506 22.366185L326.041147 761.996117 256.386456 735.156695l208.325038-552.76429A37.702998 37.702998 0 0 1 512 159.387186l447.323702 138.031314a37.702998 37.702998 0 0 1 24.283287 49.844642l-228.774122 585.355016a26.200388 26.200388 0 0 1-33.868795 14.697779z m0 0" p-id="1388" fill="#dbdbdb"></path><path d="M38.475909 708.956307a148.89489 148.89489 0 1 0 148.89489-148.89489 148.89489 148.89489 0 0 0-148.89489 148.89489z m0 0M467.906664 875.10511a148.89489 148.89489 0 1 0 148.894889-148.894889 148.89489 148.89489 0 0 0-148.894889 148.894889z m0 0M192.48307 388.161309L74.261805 88.454428A35.785896 35.785896 0 0 1 96.627991 41.165922L220.60056 1.545823a34.507828 34.507828 0 0 1 41.5372 18.531982l15.336813 33.229761a34.507828 34.507828 0 0 1-21.088117 48.566573L172.033986 129.352595a14.697779 14.697779 0 0 0-8.946474 19.171016l81.1573 207.046971a12.141643 12.141643 0 0 1-7.029372 15.336812z m0 0" p-id="1389" fill="#dbdbdb"></path><path d="M55.729823 388.161309a97.772181 97.772181 0 1 0 97.772181-97.772181A97.772181 97.772181 0 0 0 55.729823 388.161309z m0 0" p-id="1390" fill="#dbdbdb"></path></svg>