<?xml version="1.0" standalone="no"?><!DOCTYPE svg PUBLIC "-//W3C//DTD SVG 1.1//EN" "http://www.w3.org/Graphics/SVG/1.1/DTD/svg11.dtd"><svg t="1552448142946" class="icon" style="" viewBox="0 0 1024 1024" version="1.1" xmlns="http://www.w3.org/2000/svg" p-id="5592" xmlns:xlink="http://www.w3.org/1999/xlink" width="16" height="16"><defs><style type="text/css"></style></defs><path d="M826.2 891.6L133.3 198.7c-15.9-15.9-15.9-41.7 0-57.6 15.9-15.9 41.7-15.9 57.6 0L883.8 834c15.9 15.9 15.9 41.7 0 57.6-16 15.9-41.7 15.9-57.6 0zM649 371.2c37.8 40.5 58.8 93.8 58.7 149.2 0 22.1-3.4 43.9-9.8 64.6l56.2 56.2c47.1-103.2 30.8-228-49-316.1-3.4-9-10.1-16.4-18.9-20.5-7.3-4.2-15.9-5.7-24.3-4.4-20.7 3.4-34.7 23-31.3 43.8 1.8 11.3 8.5 21.3 18.4 27.2z" p-id="5593" fill="#ffffff"></path><path d="M781.4 238.2c66.9 70.1 104.1 163.3 104 260.2 0.1 75.6-22.6 148.6-63.9 210.2l52.4 52.4c54.4-75.8 84.5-167.5 84.4-262.6 0.1-115.2-43.9-226.1-123.1-309.7-6.3-13.1-19.6-21.4-34.1-21.4-13.3 0-25.6 7-32.5 18.4-11 18.1-5.2 41.6 12.8 52.5zM570.9 458V179.6c0-85-82.7-105.3-135.2-55.7l-98.1 100.8L570.9 458zM187.2 315.9h-52c-48.6 0-72.6 26.3-72.6 73v243.3c0 45.9 24.7 73 72.6 73H249l186.7 192c53.7 50.6 135.2 28.3 135.2-55.7V699.7L187.2 315.9z" p-id="5594" fill="#ffffff"></path></svg>