<svg xmlns="http://www.w3.org/2000/svg" width="16.889" height="18.752" viewBox="0 0 16.889 18.752">
  <g id="音量" transform="translate(0.258 0)">
    <path id="路径_2" data-name="路径 2" d="M63.849,150.792H61.658a.781.781,0,0,1-.723-.833v-5.846a.783.783,0,0,1,.723-.833h2.173v0l5.312-3.97a.666.666,0,0,1,.469-.2.785.785,0,0,1,.723.835.978.978,0,0,1-.007.112v13.963a.979.979,0,0,1,.007.112.785.785,0,0,1-.723.835.661.661,0,0,1-.438-.17Z" transform="translate(-60.935 -137.662)" fill="#fff"/>
    <path id="路径_3" data-name="路径 3" d="M710.828,61.053l0,0a13.279,13.279,0,0,1-.012,18.488l0,0a.5.5,0,0,1-.331.127.58.58,0,0,1-.542-.611.66.66,0,0,1,.113-.374l-.006-.007.046-.044a.574.574,0,0,1,.071-.069,11.958,11.958,0,0,0,0-16.538.574.574,0,0,1-.071-.069l-.034-.033,0,0a.657.657,0,0,1-.123-.388.58.58,0,0,1,.542-.611A.5.5,0,0,1,710.828,61.053Z" transform="translate(-697.939 -60.914)" fill="#fff"/>
    <path id="路径_4" data-name="路径 4" d="M667.8,285.859l0-.006a8.633,8.633,0,0,1,0,10.173l0-.006a.473.473,0,0,1-.324.135.623.623,0,0,1-.542-.68.8.8,0,0,1,.108-.407l0,0,.043-.055,0-.006a7.029,7.029,0,0,0,0-8.129l0-.006-.04-.051,0,0a.8.8,0,0,1-.11-.412.623.623,0,0,1,.542-.681A.472.472,0,0,1,667.8,285.859Z" transform="translate(-655.722 -281.563)" fill="#fff"/>
    <g id="矩形_38" data-name="矩形 38" transform="translate(-0.257 1.763) rotate(-36)" fill="#fff" stroke="#5c5c5c" stroke-width="0.5">
      <rect width="3" height="21" rx="1.5" stroke="none"/>
      <rect x="0.25" y="0.25" width="2.5" height="20.5" rx="1.25" fill="none"/>
    </g>
  </g>
</svg>
