<svg xmlns="http://www.w3.org/2000/svg" width="11.598" height="11.388" viewBox="0 0 11.598 11.388">
  <path id="有序列表" d="M116.926,106.481h7.322a.732.732,0,1,1,0,1.464h-7.322a.732.732,0,0,1,0-1.464Zm0,4.393h7.322a.732.732,0,1,1,0,1.464h-7.322a.732.732,0,1,1,0-1.464Zm0,4.393h7.322a.732.732,0,0,1,0,1.464h-7.322a.732.732,0,0,1,0-1.464Zm-3.4-8.743v-.344a2.256,2.256,0,0,0,.337,0,.476.476,0,0,0,.249-.139.447.447,0,0,0,.1-.183.424.424,0,0,0,0-.1h.469v2.555h-.549v-1.787Zm0,5.675a1.464,1.464,0,0,1,.513-.549,3.776,3.776,0,0,0,.454-.359.535.535,0,0,0,.161-.373.41.41,0,0,0-.088-.271.322.322,0,0,0-.264-.11.315.315,0,0,0-.351.168.857.857,0,0,0-.059.315h-.476a1.252,1.252,0,0,1,.117-.535.732.732,0,0,1,.732-.388.915.915,0,0,1,.652.227.791.791,0,0,1,.242.6.82.82,0,0,1-.168.513,1.714,1.714,0,0,1-.373.329l-.205.146-.264.2a.578.578,0,0,0-.117.139h1.128v.447h-1.772a1.215,1.215,0,0,1,.117-.505Zm.366,4.108a.586.586,0,0,0,.051.256.344.344,0,0,0,.337.19.373.373,0,0,0,.234-.073.381.381,0,0,0,.11-.293.337.337,0,0,0-.205-.344,1.054,1.054,0,0,0-.366-.1v-.366a.966.966,0,0,0,.344-.051.3.3,0,0,0,.168-.315.337.337,0,0,0-.088-.242.315.315,0,0,0-.242-.1.308.308,0,0,0-.264.117.483.483,0,0,0-.081.308h-.476a1.281,1.281,0,0,1,.066-.366.827.827,0,0,1,.2-.278.688.688,0,0,1,.234-.139,1.033,1.033,0,0,1,.337-.037.9.9,0,0,1,.6.19.637.637,0,0,1,.227.513.571.571,0,0,1-.139.388.461.461,0,0,1-.176.132.366.366,0,0,1,.2.117.637.637,0,0,1,.2.491.827.827,0,0,1-.227.578.871.871,0,0,1-.674.249.82.82,0,0,1-.732-.359,1.069,1.069,0,0,1-.124-.5Z" transform="translate(-113.383 -105.756)" fill="#fff"/>
</svg>
