<svg xmlns="http://www.w3.org/2000/svg" width="16.113" height="15" viewBox="0 0 16.113 15">
  <path id="随机播放_32" d="M74.848,104.735a.475.475,0,0,0-.459-.172.636.636,0,0,0-.631.631.708.708,0,0,0,.229.459l.745.745a4.349,4.349,0,0,1-2.179-.917c-.057,0-.057-.057-.115-.115l-6.766-7.11a5.475,5.475,0,0,0-4.186-1.95.636.636,0,0,0-.631.631.589.589,0,0,0,.631.573,4.249,4.249,0,0,1,3.268,1.548l6.881,7.168.115.115a5.949,5.949,0,0,0,3.1,1.261l-.86.8a.684.684,0,0,0-.287.516.6.6,0,0,0,.688.573.708.708,0,0,0,.459-.229l1.778-1.663a.727.727,0,0,0,0-1.032Zm-.057-9.977a.581.581,0,0,0-.86-.115.521.521,0,0,0-.229.459.5.5,0,0,0,.287.516l.745.745a5.842,5.842,0,0,0-3.44,1.606l-2.064,2.122a.554.554,0,0,0,0,.8.7.7,0,0,0,.917,0l2.007-2.122a4.739,4.739,0,0,1,2.638-1.261l-.8.8a.708.708,0,0,0-.229.459.628.628,0,0,0,.573.631.925.925,0,0,0,.516-.172L76.741,97.4a.624.624,0,0,0,0-.86l-1.95-1.778m-7.856,8.028a.651.651,0,0,0-.459.172l-2.122,2.179a3.946,3.946,0,0,1-2.867,1.2h-.057a.636.636,0,0,0-.631.631.589.589,0,0,0,.631.573h.057A5.591,5.591,0,0,0,65.273,106l2.179-2.236a.554.554,0,0,0,0-.8A.925.925,0,0,0,66.935,102.786Z" transform="translate(-60.8 -94.502)" fill="#fff"/>
</svg>
