<svg xmlns="http://www.w3.org/2000/svg" width="16.631" height="16.631" viewBox="0 0 16.631 16.631">
  <g id="组_112" data-name="组 112" transform="translate(-1498 -727.906)">
    <path id="循环播放_32" d="M75.7,78.671H66.435l.891.832a.624.624,0,0,1,.3.535.706.706,0,0,1-.713.594.885.885,0,0,1-.535-.238l-2.019-1.782a.6.6,0,0,1,0-.891l2.019-1.841a.829.829,0,0,1,.535-.178.659.659,0,0,1,.653.653.733.733,0,0,1-.238.475l-.772.713H75.76a3.663,3.663,0,0,0,3.683-3.683v-1.6a.594.594,0,0,1,1.188,0v1.6A4.894,4.894,0,0,1,75.7,78.671ZM68.93,65.96h9.206l-.891-.832a.624.624,0,0,1-.3-.535A.706.706,0,0,1,77.661,64a.885.885,0,0,1,.535.238l2.019,1.782a.6.6,0,0,1,0,.891l-1.96,1.841a.829.829,0,0,1-.535.178.659.659,0,0,1-.653-.653A.733.733,0,0,1,77.3,67.8l.772-.713H68.87a3.805,3.805,0,0,0-3.683,3.8v1.663a.594.594,0,1,1-1.188,0v-1.6A4.931,4.931,0,0,1,68.93,65.96Z" transform="translate(1434 663.906)" fill="#fff"/>
    <text id="_1" data-name="1" transform="translate(1504.5 739)" fill="#fff" font-size="8" font-family="PingFangSC-Regular, PingFang SC"><tspan x="0" y="0">1</tspan></text>
  </g>
</svg>
