<?xml version="1.0" standalone="no"?><!DOCTYPE svg PUBLIC "-//W3C//DTD SVG 1.1//EN" "http://www.w3.org/Graphics/SVG/1.1/DTD/svg11.dtd"><svg t="1552545943457" class="icon" style="" viewBox="0 0 1024 1024" version="1.1" xmlns="http://www.w3.org/2000/svg" p-id="5596" xmlns:xlink="http://www.w3.org/1999/xlink" width="16" height="16"><defs><style type="text/css"></style></defs><path d="M918.3 340.2c-22.3-52.6-54.1-99.9-94.7-140.4-40.6-40.6-87.8-72.4-140.4-94.7-54.4-22.9-112.3-34.6-171.9-34.6-59.6 0-117.5 11.7-172 34.7-52.6 22.3-99.9 54.1-140.4 94.7-40.6 40.6-72.4 87.8-94.7 140.4-23.1 54.5-34.7 112.3-34.7 172s11.6 117.5 34.7 172c22.3 52.6 54.1 99.9 94.7 140.4 40.6 40.6 87.8 72.4 140.4 94.7 54.5 23.1 112.3 34.7 172 34.7 59.6 0 117.5-11.6 172-34.7 52.6-22.3 99.9-54.1 140.4-94.7 40.6-40.6 72.4-87.8 94.7-140.4 23.1-54.5 34.7-112.3 34.7-172 0-59.8-11.7-117.6-34.8-172.1z m-35.4 328.9c-17.8 42.1-42.4 80.4-73 114.2-12.3-69.4-54.3-137.3-95.9-179-4.3-4.3-9.9-6.7-16-6.7s-11.7 2.4-16 6.7c-8.9 8.8-8.9 23.2 0 32 41.5 41.6 86.2 117.5 86.2 186.2v0.5c-30.1 25-63.7 45.4-100 60.7-49.7 21-102.5 31.7-156.9 31.7-54.4 0-107.2-10.6-156.9-31.7-36.3-15.3-69.7-35.7-100-60.7v-0.5c0-68.7 44.7-144.6 86.2-186.2 43.8-43.8 101.9-68.8 163.3-70.6 2.5 0.1 4.9 0.1 7.4 0.1 106.6 0 193.4-86.7 193.4-193.4C704.7 265.8 618 179 511.3 179c-106.6 0-193.4 86.7-193.4 193.4 0 68.6 35.5 130.8 93.7 165.7-38.4 14.2-73.7 36.9-102.9 66.1-41.7 41.7-83.6 109.5-95.9 178.8-30.7-33.7-55.2-72.1-73-114.2-21-49.7-31.7-102.5-31.7-156.9 0-54.4 10.6-107.2 31.7-156.9 20.3-48 49.4-91.1 86.4-128.2 37-37 80.2-66.1 128.2-86.4 49.7-21 102.5-31.7 156.9-31.7 54.4 0 107.2 10.6 156.9 31.7 48 20.3 91.1 49.4 128.2 86.4 37 37 66.1 80.2 86.4 128.2 21 49.7 31.7 102.5 31.7 156.9 0.1 54.7-10.6 107.5-31.6 157.2zM363.1 372.5c0-81.7 66.4-148.2 148.2-148.2 81.8 0 148.2 66.4 148.2 148.2 0 80.2-65 146.5-145.2 148.1-1-0.1-2-0.2-3-0.2-2.4 0-4.8 0-6.8 0.1-79.2-3.5-141.4-68.5-141.4-148z m0 0" fill="#ffffff" p-id="5597"></path><path d="M511.3 960.2c-60.5 0-119.2-11.8-174.4-35.2-53.4-22.6-101.3-54.9-142.4-96-41.1-41.1-73.4-89-96-142.4-23.4-55.2-35.2-113.8-35.2-174.4S75.2 393 98.5 337.8c22.6-53.4 54.9-101.3 96-142.4 41.1-41.1 89-73.4 142.4-96C392.4 76.1 451 64.2 511.3 64.2c60.2 0 118.9 11.8 174.3 35.1 53.4 22.6 101.3 54.9 142.4 96 41.1 41.1 73.4 89 96 142.4 23.4 55.3 35.3 114 35.3 174.5s-11.8 119.2-35.2 174.4c-22.6 53.4-54.9 101.3-96 142.4-41.1 41.1-89 73.4-142.4 96-55.2 23.4-113.8 35.2-174.4 35.2z m0-883.5c-58.6 0-115.7 11.5-169.5 34.2-51.9 22-98.5 53.4-138.5 93.3-40 40-71.4 86.6-93.3 138.5-22.7 53.6-34.2 110.7-34.2 169.5 0 58.9 11.5 115.9 34.2 169.5 22 51.9 53.4 98.5 93.3 138.5 40 40 86.5 71.4 138.5 93.4 53.6 22.7 110.7 34.2 169.5 34.2 58.9 0 115.9-11.5 169.5-34.2 51.9-22 98.5-53.4 138.5-93.4 40-40 71.4-86.5 93.4-138.5 22.7-53.6 34.2-110.7 34.2-169.5s-11.5-115.9-34.3-169.6c-22-51.9-53.4-98.5-93.4-138.5-40-40-86.5-71.4-138.5-93.4-53.8-22.6-110.8-34-169.4-34z m0 844.9c-55.3 0-108.9-10.8-159.4-32.2-36.5-15.4-70.6-36.1-101.5-61.6l-2.3-1.9v-3.4c0-70.4 45.6-148.2 88-190.6 44.9-44.9 104.4-70.6 167.5-72.4h0.4c2.4 0.1 4.7 0.1 7.1 0.1 103.2 0 187.2-84 187.2-187.2 0-103.2-84-187.2-187.2-187.2-103.2 0-187.2 84-187.2 187.2 0 66.3 33.9 126.3 90.7 160.4l11.1 6.7-12.1 4.5c-37.4 13.9-72.2 36.2-100.7 64.7-37 37-81.2 102.5-94.2 175.5l-2.2 12.4-8.5-9.3c-31-34.1-56-73.1-74.1-115.9-21.4-50.7-32.2-104.3-32.2-159.4 0-55.3 10.8-108.9 32.2-159.4 20.5-48.5 50-92.3 87.7-130.2 37.7-37.7 81.5-67.2 130.2-87.8 50.7-21.4 104.3-32.2 159.4-32.2 55.3 0 108.9 10.8 159.4 32.2 48.5 20.5 92.3 50 130.2 87.8 37.7 37.7 67.2 81.5 87.8 130.2 21.4 50.7 32.2 104.3 32.2 159.4 0 55.3-10.8 109-32.2 159.6-18 42.5-42.9 81.5-74.1 115.9l-8.5 9.4-2.2-12.5c-13-72.9-57.1-138.5-94.2-175.6-3.1-3.1-7.2-4.8-11.6-4.8s-8.5 1.7-11.6 4.8c-3.1 3.1-4.8 7.2-4.8 11.6 0 4.4 1.7 8.5 4.8 11.6 42.4 42.5 88 120.3 88 190.6v3.4l-2.2 1.9c-30.7 25.4-64.8 46.1-101.5 61.6-50.7 21.3-104.3 32.1-159.4 32.1zM260.7 820.1c29.3 23.9 61.7 43.3 96.1 57.9 48.9 20.7 100.9 31.2 154.5 31.2 53.4 0 105.4-10.5 154.5-31.2 34.7-14.6 67-34.1 96.1-57.9-1-66.1-44.2-139.1-84.4-179.4-5.4-5.4-8.5-12.7-8.5-20.4 0-7.7 3-15 8.5-20.4 5.5-5.5 12.7-8.5 20.4-8.5s14.9 3 20.4 8.5c36.2 36.3 79.1 99.1 95.1 169.8 26.5-31.1 47.8-65.7 63.7-103.1 20.7-49 31.2-101.1 31.2-154.7 0-53.4-10.5-105.4-31.2-154.5-19.9-47.2-48.6-89.7-85.1-126.2-36.7-36.6-79.1-65.2-126.2-85.1-48.8-20.7-100.8-31.3-154.5-31.3-53.4 0-105.4 10.5-154.5 31.2-47.2 20-89.7 48.6-126.2 85.1-36.6 36.7-65.2 79.1-85.1 126.2-20.7 48.9-31.2 100.9-31.2 154.5 0 53.4 10.5 105.4 31.2 154.5 16 37.7 37.3 72.3 63.7 103.1 16-70.8 58.9-133.5 95.1-169.7 26.8-26.8 59-48.5 93.8-63.1-54.3-37.2-86.3-97.8-86.3-164.4 0-110.1 89.6-199.7 199.7-199.7s199.7 89.6 199.7 199.7C711 482.5 621.4 572 511.3 572c-2.5 0-4.9 0-7.4-0.1-59.9 1.8-116.3 26.2-158.9 68.8-40.1 40.2-83.3 113.1-84.3 179.4z m253.4-293.3h-0.4c-0.9-0.1-1.7-0.2-2.4-0.2-2.3 0-4.6 0-6.5 0.1h-0.6c-82.6-3.6-147.4-71.4-147.4-154.2 0-85.1 69.3-154.4 154.4-154.4 85.1 0 154.4 69.3 154.4 154.4 0 83.4-67.9 152.6-151.3 154.3h-0.2z m-2.8-12.6c1.2 0 2.2 0.1 3.2 0.2 76.5-1.7 138.8-65.3 138.8-141.9 0-78.3-63.7-142-142-142s-142 63.7-142 142c0 76.1 59.4 138.3 135.2 141.8 2.1-0.1 4.5-0.1 6.8-0.1z" fill="#ffffff" p-id="5598"></path></svg>